<svg width="15" height="15" viewBox="0 0 15 15" fill="none" xmlns="http://www.w3.org/2000/svg">
<path d="M7.205 14.5277C3.23223 14.5277 0 11.2691 0 7.26387C0 3.25864 3.23223 0 7.205 0C11.1778 0 14.41 3.25864 14.41 7.26387C14.41 11.2691 11.1778 14.5277 7.205 14.5277ZM7.205 0.907988C3.72871 0.907988 0.900629 3.75917 0.900629 7.26387C0.900629 10.7686 3.72871 13.6197 7.205 13.6197C10.6813 13.6197 13.5094 10.7686 13.5094 7.26387C13.5094 3.75917 10.6813 0.907988 7.205 0.907988Z" fill="white"/>
<path d="M7.2042 10.8959C5.21782 10.8959 3.60168 9.26659 3.60168 7.26389C3.60168 5.26119 5.21779 3.63184 7.2042 3.63184C8.1809 3.63184 9.09472 4.01935 9.77811 4.72295L9.13432 5.35783C8.62201 4.83022 7.93687 4.53982 7.2042 4.53982C5.71429 4.53982 4.50231 5.76173 4.50231 7.26385C4.50231 8.76598 5.71429 9.98789 7.2042 9.98789C7.93641 9.98789 8.62156 9.69749 9.13432 9.16987L9.77723 9.80567C9.09427 10.5089 8.18047 10.8959 7.2042 10.8959Z" fill="white"/>
</svg>
