<svg width="32" height="32" viewBox="0 0 32 32" fill="none" xmlns="http://www.w3.org/2000/svg">
<path d="M20.1029 8.07692V8.58974H20.6157H24.4618C24.5298 8.58974 24.5951 8.61676 24.6431 8.66484C24.6912 8.71293 24.7182 8.77815 24.7182 8.84615C24.7182 8.91416 24.6912 8.97938 24.6431 9.02746C24.5951 9.07555 24.5298 9.10256 24.4618 9.10256H23.6926H23.1798V9.61538V23.4615C23.1798 23.7336 23.0717 23.9944 22.8794 24.1868C22.687 24.3791 22.4262 24.4872 22.1541 24.4872H9.84645C9.57444 24.4872 9.31356 24.3791 9.12122 24.1868L8.76544 24.5426L9.12122 24.1868C8.92887 23.9944 8.82081 23.7336 8.82081 23.4615V9.61538V9.10256H8.30799H7.53876C7.47076 9.10256 7.40554 9.07555 7.35745 9.02746L6.99483 9.39008L7.35745 9.02746C7.30937 8.97938 7.28235 8.91416 7.28235 8.84615C7.28235 8.77815 7.30937 8.71293 7.35745 8.66484C7.40554 8.61676 7.47076 8.58974 7.53876 8.58974H11.3849H11.8977V8.07692V7.30769C11.8977 6.83166 12.0868 6.37513 12.4234 6.03853C12.76 5.70192 13.2166 5.51282 13.6926 5.51282H18.308C18.784 5.51282 19.2406 5.70192 19.5772 6.03853C19.9138 6.37513 20.1029 6.83166 20.1029 7.30769V8.07692ZM19.0772 8.58974H19.59V8.07692V7.30769C19.59 6.96767 19.455 6.64158 19.2145 6.40115C18.9741 6.16071 18.648 6.02564 18.308 6.02564H13.6926C13.3526 6.02564 13.0265 6.16071 12.7861 6.40115C12.5456 6.64158 12.4106 6.96767 12.4106 7.30769V8.07692V8.58974H12.9234H19.0772ZM14.5992 20.5219L14.2365 20.1593L14.5992 20.5219C14.8396 20.2815 14.9747 19.9554 14.9747 19.6154V13.4615C14.9747 13.1215 14.8396 12.7954 14.5992 12.555C14.3587 12.3146 14.0326 12.1795 13.6926 12.1795C13.3526 12.1795 13.0265 12.3146 12.7861 12.555C12.5456 12.7954 12.4106 13.1215 12.4106 13.4615V19.6154C12.4106 19.9554 12.5456 20.2815 12.7861 20.5219C13.0265 20.7624 13.3526 20.8974 13.6926 20.8974C14.0326 20.8974 14.3587 20.7624 14.5992 20.5219ZM17.4014 20.5219L17.7641 20.1593L17.4014 20.5219C17.6419 20.7624 17.968 20.8974 18.308 20.8974C18.648 20.8974 18.9741 20.7624 19.2145 20.5219C19.455 20.2815 19.59 19.9554 19.59 19.6154V13.4615C19.59 13.1215 19.455 12.7954 19.2145 12.555C18.9741 12.3146 18.648 12.1795 18.308 12.1795C17.968 12.1795 17.6419 12.3146 17.4014 12.555C17.161 12.7954 17.0259 13.1215 17.0259 13.4615V19.6154C17.0259 19.9554 17.161 20.2815 17.4014 20.5219Z" stroke="#FF3333" stroke-width="1.02564"/>
</svg>
