<svg width="32" height="32" viewBox="0 0 32 32" fill="none" xmlns="http://www.w3.org/2000/svg">
<path d="M8.05121 19.0063L8.0512 19.0063C8.05081 19.0067 8.05042 19.0071 8.05003 19.0075C8.03573 19.0218 8.02152 19.036 8.00741 19.05C7.79079 19.2662 7.59903 19.4576 7.46388 19.6963C7.32872 19.935 7.26329 20.1979 7.18938 20.4948C7.18444 20.5147 7.17946 20.5347 7.17442 20.5549L6.28971 24.0937C6.28676 24.1055 6.28379 24.1174 6.28081 24.1293C6.22848 24.3382 6.1726 24.5613 6.15427 24.7487C6.13409 24.955 6.13879 25.3031 6.41801 25.5823C6.69722 25.8615 7.04529 25.8662 7.2516 25.8461C7.43899 25.8277 7.6621 25.7718 7.87102 25.7195C7.88293 25.7165 7.8948 25.7136 7.90662 25.7106L11.4454 24.8259C11.4656 24.8209 11.4856 24.8159 11.5055 24.8109C11.8024 24.737 12.0653 24.6716 12.3041 24.5364C12.5428 24.4013 12.7341 24.2095 12.9503 23.9929C12.9648 23.9784 12.9793 23.9638 12.994 23.9491L22.5861 14.357L22.6171 14.326C23.0351 13.9081 23.3951 13.5481 23.6447 13.221C23.9122 12.8704 24.1147 12.4805 24.1147 12C24.1147 11.5195 23.9122 11.1296 23.6447 10.779C23.3951 10.4519 23.0351 10.0919 22.6171 9.674L22.5861 9.64298L22.3573 9.41421L21.8859 9.88562L22.3573 9.41421L22.3263 9.38317C21.9084 8.96526 21.5484 8.60518 21.2213 8.3556C20.8707 8.08814 20.4808 7.88562 20.0003 7.88562C19.5198 7.88562 19.1299 8.08814 18.7794 8.3556C18.4523 8.60518 18.0922 8.96526 17.6743 9.38318L17.6433 9.41421L8.05121 19.0063Z" stroke="#222222" stroke-width="1.33333"/>
<path d="M16.667 9.99998L20.667 7.33331L24.667 11.3333L22.0003 15.3333L16.667 9.99998Z" fill="#222222"/>
</svg>
