<svg width="30" height="30" viewBox="0 0 30 30" fill="none" xmlns="http://www.w3.org/2000/svg">
<path d="M16.1739 3.22156C17.5248 3.22516 18.2105 3.23237 18.8025 3.24918L19.0355 3.25758C19.3045 3.26719 19.5699 3.2792 19.8905 3.29361C21.1682 3.35365 22.04 3.55539 22.8049 3.852C23.5975 4.15701 24.2651 4.57009 24.9328 5.23656C25.5434 5.83685 26.0159 6.56298 26.3173 7.36443C26.6139 8.12936 26.8157 9.00117 26.8757 10.2801C26.8901 10.5995 26.9021 10.8649 26.9118 11.135L26.919 11.368C26.937 11.9588 26.9442 12.6445 26.9466 13.9954L26.9478 14.8913V16.4643C26.9507 17.3402 26.9415 18.2161 26.9202 19.0918L26.913 19.3247C26.9034 19.5949 26.8913 19.8603 26.8769 20.1797C26.8169 21.4586 26.6127 22.3292 26.3173 23.0953C26.0167 23.8972 25.5442 24.6236 24.9328 25.2232C24.3323 25.8336 23.6062 26.3061 22.8049 26.6078C22.04 26.9044 21.1682 27.1061 19.8905 27.1662C19.6055 27.1796 19.3205 27.1916 19.0355 27.2022L18.8025 27.2094C18.2105 27.2262 17.5248 27.2346 16.1739 27.237L15.2781 27.2382H13.7062C12.8299 27.2412 11.9536 27.232 11.0776 27.2106L10.8446 27.2034C10.5595 27.1926 10.2745 27.1802 9.98961 27.1662C8.71192 27.1061 7.84012 26.9044 7.07399 26.6078C6.27263 26.3068 5.54679 25.8343 4.94731 25.2232C4.33614 24.6232 3.86323 23.897 3.56155 23.0953C3.26494 22.3304 3.0632 21.4586 3.00316 20.1797C2.98978 19.8948 2.97778 19.6098 2.96714 19.3247L2.96113 19.0918C2.939 18.2161 2.929 17.3403 2.93111 16.4643V13.9954C2.92776 13.1195 2.93657 12.2437 2.95753 11.368L2.96594 11.135C2.97554 10.8649 2.98755 10.5995 3.00196 10.2801C3.062 9.00117 3.26374 8.13056 3.56035 7.36443C3.8619 6.56216 4.33575 5.8358 4.94851 5.23656C5.54784 4.6259 6.2732 4.15339 7.07399 3.852C7.84012 3.55539 8.71072 3.35365 9.98961 3.29361C10.309 3.2792 10.5756 3.26719 10.8446 3.25758L11.0776 3.25038C11.9532 3.22904 12.8291 3.21983 13.705 3.22276L16.1739 3.22156ZM14.9394 9.22572C13.347 9.22572 11.8199 9.8583 10.6939 10.9843C9.56786 12.1103 8.93528 13.6375 8.93528 15.2299C8.93528 16.8223 9.56786 18.3495 10.6939 19.4755C11.8199 20.6015 13.347 21.2341 14.9394 21.2341C16.5318 21.2341 18.059 20.6015 19.185 19.4755C20.311 18.3495 20.9436 16.8223 20.9436 15.2299C20.9436 13.6375 20.311 12.1103 19.185 10.9843C18.059 9.8583 16.5318 9.22572 14.9394 9.22572ZM14.9394 11.6274C15.4125 11.6273 15.881 11.7204 16.3181 11.9014C16.7552 12.0824 17.1524 12.3476 17.487 12.6821C17.8216 13.0166 18.087 13.4137 18.2681 13.8507C18.4492 14.2878 18.5425 14.7562 18.5425 15.2293C18.5426 15.7024 18.4495 16.1708 18.2686 16.608C18.0876 17.0451 17.8223 17.4422 17.4878 17.7768C17.1534 18.1114 16.7563 18.3768 16.3192 18.5579C15.8822 18.7391 15.4137 18.8323 14.9406 18.8324C13.9852 18.8324 13.0689 18.4528 12.3933 17.7772C11.7177 17.1016 11.3381 16.1853 11.3381 15.2299C11.3381 14.2744 11.7177 13.3581 12.3933 12.6825C13.0689 12.0069 13.9852 11.6274 14.9406 11.6274M21.245 7.42447C20.8469 7.42447 20.4651 7.58262 20.1836 7.86412C19.9021 8.14562 19.744 8.52741 19.744 8.92552C19.744 9.32362 19.9021 9.70541 20.1836 9.98691C20.4651 10.2684 20.8469 10.4266 21.245 10.4266C21.6431 10.4266 22.0249 10.2684 22.3064 9.98691C22.5879 9.70541 22.7461 9.32362 22.7461 8.92552C22.7461 8.52741 22.5879 8.14562 22.3064 7.86412C22.0249 7.58262 21.6431 7.42447 21.245 7.42447Z" fill="white"/>
</svg>
