<svg width="170" height="48" viewBox="0 0 170 48" fill="none" xmlns="http://www.w3.org/2000/svg">
<path d="M23.9066 5.60584e-06C10.9096 0.00912096 0.344915 10.4508 0.0106856 23.4432C-0.074391 26.7217 0.343396 29.8558 1.44939 32.7256C1.44939 32.7256 -2.23017 14.8854 11.3821 5.56341C14.8763 3.24355 19.8654 2.08134 24.3927 2.17857C35.8538 2.43077 45.9034 12.7615 45.9824 24.2332C46.0614 36.0542 35.7261 45.9793 23.9233 45.9793C20.4124 45.9793 16.6082 45.1362 13.8767 43.3116C9.88717 40.6453 9.82032 36.3824 11.1162 32.8532C14.732 22.9965 20.6144 8.6368 23.9233 8.32688C25.4577 8.17496 29.6872 14.4706 35.9799 35.0759C35.9943 35.1219 36.0039 35.1692 36.0087 35.2172C36.6757 36.1895 37.3107 37.2529 37.3107 37.2529C36.7562 36.5237 35.8614 35.7626 34.9878 35.1093C25.6552 28.4247 14.814 26.3874 14.814 26.3874L14.3795 27.3628C14.3795 27.3628 23.9233 29.1767 35.8006 37.5704C36.7607 38.2495 37.7072 38.2131 37.9138 37.2317C38.3787 35.0151 28.9504 6.39139 23.9218 6.39139C20.4701 6.39139 13.155 22.6881 9.4314 32.8441C7.4321 38.2723 9.21871 43.5759 14.5269 45.8806C17.5432 47.1867 20.7958 47.859 24.0828 47.8556C37.3092 47.8556 47.9787 37.6616 48 24.4352C48.0228 11.0995 37.2211 -0.00910974 23.9066 5.60584e-06Z" fill="black"/>
<path d="M10.82 26.5302L11.2257 25.4774C11.2257 25.4774 7.3015 25.0687 3.85742 25.8694C3.85742 25.8694 8.11733 25.6506 10.82 26.5302Z" fill="black"/>
<path d="M23.9234 23.5541C24.66 23.5541 25.2572 22.9569 25.2572 22.2202C25.2572 21.4835 24.66 20.8863 23.9234 20.8863C23.1867 20.8863 22.5895 21.4835 22.5895 22.2202C22.5895 22.9569 23.1867 23.5541 23.9234 23.5541Z" fill="black"/>
<path d="M75.1029 30L72.4492 23.1806H63.7166L61.0938 30H58.2858L66.8949 7.87543H69.3943L77.9726 30H75.1029ZM69.1475 14.0469C69.0858 13.8823 68.9829 13.584 68.8389 13.152C68.6949 12.72 68.5509 12.2777 68.4069 11.8251C68.2835 11.352 68.1806 10.992 68.0983 10.7451C67.9955 11.1566 67.8823 11.5783 67.7589 12.0103C67.6561 12.4217 67.5429 12.8023 67.4195 13.152C67.3166 13.5017 67.2241 13.8 67.1418 14.0469L64.6423 20.712H71.6161L69.1475 14.0469ZM94.4402 13.4606V30H92.2185L91.8174 27.8091H91.6939C91.3442 28.3851 90.8916 28.8583 90.3362 29.2286C89.7808 29.5989 89.1739 29.8663 88.5156 30.0309C87.8574 30.216 87.1682 30.3086 86.4482 30.3086C85.1316 30.3086 84.0208 30.1029 83.1156 29.6914C82.2311 29.2594 81.5625 28.6011 81.1099 27.7166C80.6574 26.832 80.4311 25.6903 80.4311 24.2914V13.4606H83.1774V24.1063C83.1774 25.4229 83.4756 26.4103 84.0722 27.0686C84.6688 27.7269 85.5945 28.056 86.8494 28.056C88.0836 28.056 89.0505 27.8297 89.7499 27.3771C90.4699 26.904 90.9739 26.2251 91.2619 25.3406C91.5705 24.4354 91.7248 23.3451 91.7248 22.0697V13.4606H94.4402ZM106.325 30.3086C104.865 30.3086 103.558 30.0103 102.406 29.4137C101.275 28.8171 100.38 27.8914 99.7218 26.6366C99.0841 25.3817 98.7653 23.7771 98.7653 21.8229C98.7653 19.7863 99.1047 18.1303 99.7836 16.8549C100.462 15.5794 101.378 14.6434 102.53 14.0469C103.702 13.4503 105.029 13.152 106.51 13.152C107.354 13.152 108.166 13.2446 108.948 13.4297C109.73 13.5943 110.368 13.8 110.861 14.0469L110.028 16.2994C109.534 16.1143 108.958 15.9394 108.3 15.7749C107.642 15.6103 107.025 15.528 106.449 15.528C105.338 15.528 104.422 15.7646 103.702 16.2377C102.982 16.7109 102.448 17.4103 102.098 18.336C101.748 19.2617 101.573 20.4137 101.573 21.792C101.573 23.1086 101.748 24.2297 102.098 25.1554C102.448 26.0811 102.972 26.7806 103.672 27.2537C104.371 27.7269 105.245 27.9634 106.294 27.9634C107.2 27.9634 107.992 27.8709 108.67 27.6857C109.37 27.5006 110.008 27.2743 110.584 27.0069V29.4137C110.028 29.7017 109.411 29.9177 108.732 30.0617C108.074 30.2263 107.272 30.3086 106.325 30.3086ZM120.04 28.0869C120.452 28.0869 120.873 28.056 121.305 27.9943C121.737 27.912 122.087 27.8297 122.355 27.7474V29.8149C122.067 29.9589 121.655 30.072 121.12 30.1543C120.585 30.2571 120.071 30.3086 119.577 30.3086C118.713 30.3086 117.911 30.1646 117.171 29.8766C116.451 29.568 115.864 29.0434 115.412 28.3029C114.959 27.5623 114.733 26.5234 114.733 25.1863V15.5589H112.388V14.2629L114.764 13.1829L115.844 9.66514H117.448V13.4606H122.231V15.5589H117.448V25.1246C117.448 26.1326 117.685 26.8834 118.158 27.3771C118.652 27.8503 119.279 28.0869 120.04 28.0869ZM128.382 13.4606V30H125.666V13.4606H128.382ZM127.055 7.25828C127.466 7.25828 127.826 7.40228 128.135 7.69028C128.464 7.95771 128.629 8.38971 128.629 8.98628C128.629 9.56228 128.464 9.99428 128.135 10.2823C127.826 10.5703 127.466 10.7143 127.055 10.7143C126.602 10.7143 126.222 10.5703 125.913 10.2823C125.605 9.99428 125.45 9.56228 125.45 8.98628C125.45 8.38971 125.605 7.95771 125.913 7.69028C126.222 7.40228 126.602 7.25828 127.055 7.25828ZM148.001 21.6994C148.001 23.0777 147.816 24.3017 147.446 25.3714C147.096 26.4206 146.582 27.3154 145.903 28.056C145.245 28.7966 144.432 29.3623 143.465 29.7531C142.519 30.1234 141.46 30.3086 140.287 30.3086C139.197 30.3086 138.189 30.1234 137.263 29.7531C136.337 29.3623 135.535 28.7966 134.856 28.056C134.177 27.3154 133.642 26.4206 133.252 25.3714C132.881 24.3017 132.696 23.0777 132.696 21.6994C132.696 19.8686 133.005 18.3257 133.622 17.0709C134.239 15.7954 135.124 14.8286 136.276 14.1703C137.428 13.4914 138.796 13.152 140.38 13.152C141.881 13.152 143.198 13.4914 144.329 14.1703C145.481 14.8286 146.376 15.7954 147.014 17.0709C147.672 18.3257 148.001 19.8686 148.001 21.6994ZM135.504 21.6994C135.504 22.9954 135.669 24.1269 135.998 25.0937C136.348 26.04 136.882 26.7703 137.602 27.2846C138.322 27.7989 139.238 28.056 140.349 28.056C141.46 28.056 142.375 27.7989 143.095 27.2846C143.815 26.7703 144.34 26.04 144.669 25.0937C145.018 24.1269 145.193 22.9954 145.193 21.6994C145.193 20.3829 145.018 19.2617 144.669 18.336C144.319 17.4103 143.784 16.7006 143.064 16.2069C142.365 15.6926 141.449 15.4354 140.318 15.4354C138.631 15.4354 137.407 15.9909 136.646 17.1017C135.885 18.2126 135.504 19.7451 135.504 21.6994ZM160.266 13.152C162.241 13.152 163.732 13.6354 164.74 14.6023C165.748 15.5486 166.252 17.0914 166.252 19.2309V30H163.568V19.416C163.568 18.0789 163.269 17.0811 162.673 16.4229C162.076 15.7646 161.14 15.4354 159.865 15.4354C158.034 15.4354 156.769 15.9497 156.069 16.9783C155.37 18.0069 155.02 19.488 155.02 21.4217V30H152.305V13.4606H154.496L154.897 15.7131H155.051C155.421 15.1371 155.874 14.664 156.409 14.2937C156.964 13.9029 157.571 13.6149 158.229 13.4297C158.888 13.2446 159.567 13.152 160.266 13.152Z" fill="black"/>
<path d="M66.7663 36.3338V44H65.7365L65.5506 42.9845H65.4933C65.3312 43.2515 65.1215 43.4708 64.864 43.6424C64.6066 43.8141 64.3253 43.938 64.0202 44.0143C63.715 44.1001 63.3956 44.143 63.0619 44.143C62.4516 44.143 61.9367 44.0477 61.5172 43.857C61.1072 43.6567 60.7973 43.3516 60.5875 42.9416C60.3777 42.5316 60.2729 42.0024 60.2729 41.354V36.3338H61.5458V41.2682C61.5458 41.8784 61.6841 42.3361 61.9606 42.6412C62.2371 42.9464 62.6662 43.0989 63.2478 43.0989C63.8199 43.0989 64.2681 42.994 64.5923 42.7843C64.926 42.565 65.1596 42.2503 65.2931 41.8403C65.4361 41.4207 65.5076 40.9154 65.5076 40.3242V36.3338H66.7663ZM80.1703 38.8081C80.1703 38.9607 80.1607 39.1609 80.1417 39.4088C80.1321 39.6567 80.1226 39.8713 80.1131 40.0525H80.1703C80.2275 39.9762 80.3133 39.8665 80.4277 39.7235C80.5421 39.5805 80.6566 39.4374 80.771 39.2944C80.8949 39.1418 80.9998 39.0179 81.0856 38.9225L83.5314 36.3338H85.0046L81.9009 39.6091L85.2191 44H83.703L81.0427 40.4243L80.1703 41.1824V44H78.9259V33.1299H80.1703V38.8081ZM99.8677 36.1907C100.011 36.1907 100.163 36.2003 100.325 36.2193C100.497 36.2289 100.645 36.2479 100.769 36.2765L100.611 37.4351C100.487 37.4065 100.349 37.3826 100.197 37.3635C100.054 37.3445 99.9153 37.3349 99.7818 37.3349C99.4863 37.3349 99.205 37.3969 98.938 37.5209C98.671 37.6448 98.4326 37.8212 98.2228 38.0501C98.0131 38.2694 97.8462 38.5364 97.7223 38.851C97.6078 39.1657 97.5506 39.5185 97.5506 39.9094V44H96.292V36.3338H97.3218L97.4648 37.7354H97.522C97.6841 37.4494 97.8796 37.1919 98.1084 36.9631C98.3373 36.7247 98.5995 36.5388 98.8951 36.4053C99.1907 36.2622 99.5149 36.1907 99.8677 36.1907ZM114.55 36.205C115.485 36.205 116.176 36.41 116.624 36.82C117.072 37.2301 117.296 37.8832 117.296 38.7795V44H116.381L116.138 42.913H116.081C115.861 43.1895 115.632 43.4231 115.394 43.6138C115.165 43.795 114.898 43.9285 114.593 44.0143C114.297 44.1001 113.935 44.143 113.506 44.143C113.048 44.143 112.634 44.062 112.262 43.8999C111.899 43.7378 111.613 43.4899 111.404 43.1561C111.194 42.8129 111.089 42.3838 111.089 41.8689C111.089 41.1061 111.389 40.5197 111.99 40.1097C112.591 39.6901 113.516 39.4613 114.765 39.4231L116.066 39.3802V38.9225C116.066 38.2837 115.928 37.8403 115.651 37.5924C115.375 37.3445 114.984 37.2205 114.479 37.2205C114.078 37.2205 113.697 37.2825 113.334 37.4065C112.972 37.5209 112.634 37.6544 112.319 37.8069L111.933 36.863C112.267 36.6818 112.662 36.5292 113.12 36.4053C113.578 36.2718 114.054 36.205 114.55 36.205ZM114.922 40.2956C113.969 40.3337 113.306 40.4863 112.934 40.7533C112.572 41.0203 112.39 41.3969 112.39 41.8832C112.39 42.3123 112.519 42.6269 112.777 42.8272C113.044 43.0274 113.382 43.1275 113.792 43.1275C114.441 43.1275 114.979 42.9511 115.408 42.5983C115.837 42.236 116.052 41.683 116.052 40.9392V40.2527L114.922 40.2956ZM130.649 36.3338V44H129.39V36.3338H130.649ZM130.034 33.4589C130.224 33.4589 130.391 33.5257 130.534 33.6591C130.687 33.7831 130.763 33.9833 130.763 34.2599C130.763 34.5268 130.687 34.7271 130.534 34.8606C130.391 34.9941 130.224 35.0608 130.034 35.0608C129.824 35.0608 129.647 34.9941 129.504 34.8606C129.361 34.7271 129.29 34.5268 129.29 34.2599C129.29 33.9833 129.361 33.7831 129.504 33.6591C129.647 33.5257 129.824 33.4589 130.034 33.4589ZM146.493 36.1907C147.409 36.1907 148.1 36.4148 148.567 36.863C149.034 37.3016 149.268 38.0167 149.268 39.0084V44H148.024V39.0942C148.024 38.4744 147.885 38.0119 147.609 37.7068C147.332 37.4017 146.898 37.2491 146.307 37.2491C145.459 37.2491 144.872 37.4875 144.548 37.9643C144.224 38.441 144.062 39.1275 144.062 40.0238V44H142.803V36.3338H143.819L144.005 37.3778H144.076C144.248 37.1109 144.457 36.8916 144.705 36.7199C144.963 36.5388 145.244 36.4053 145.549 36.3194C145.854 36.2336 146.169 36.1907 146.493 36.1907ZM164.331 36.1907C164.989 36.1907 165.552 36.3338 166.019 36.6198C166.496 36.9059 166.858 37.3111 167.106 37.8355C167.363 38.3504 167.492 38.9559 167.492 39.652V40.41H162.243C162.262 41.2777 162.481 41.9404 162.901 42.3981C163.33 42.8462 163.926 43.0703 164.689 43.0703C165.175 43.0703 165.604 43.0274 165.976 42.9416C166.357 42.8462 166.748 42.7128 167.149 42.5411V43.6424C166.758 43.8141 166.372 43.938 165.99 44.0143C165.609 44.1001 165.156 44.143 164.631 44.143C163.907 44.143 163.263 43.9952 162.701 43.6996C162.148 43.4041 161.714 42.9654 161.399 42.3838C161.094 41.7926 160.941 41.0727 160.941 40.2241C160.941 39.385 161.08 38.6651 161.356 38.0644C161.642 37.4637 162.038 37.0012 162.543 36.677C163.058 36.3528 163.654 36.1907 164.331 36.1907ZM164.317 37.2205C163.716 37.2205 163.239 37.416 162.886 37.8069C162.543 38.1883 162.338 38.7223 162.271 39.4088H166.176C166.176 38.9702 166.109 38.5888 165.976 38.2646C165.842 37.9404 165.637 37.6877 165.361 37.5066C165.094 37.3159 164.746 37.2205 164.317 37.2205Z" fill="#615EF0"/>
</svg>
