<svg width="30" height="30" viewBox="0 0 30 30" fill="none" xmlns="http://www.w3.org/2000/svg">
<path d="M20.1832 7.80871C19.3623 6.87161 18.91 5.66815 18.9103 4.42236H15.1997V19.3127C15.1711 20.1185 14.8309 20.8817 14.2508 21.4417C13.6707 22.0017 12.8959 22.3147 12.0896 22.3148C10.3844 22.3148 8.9674 20.9218 8.9674 19.1926C8.9674 17.1272 10.9608 15.5781 13.0142 16.2145V12.4199C8.87133 11.8675 5.24481 15.0858 5.24481 19.1926C5.24481 23.1914 8.55911 26.0374 12.0776 26.0374C15.8482 26.0374 18.9103 22.9752 18.9103 19.1926V11.6394C20.4149 12.7199 22.2214 13.2997 24.0739 13.2965V9.58595C24.0739 9.58595 21.8163 9.69402 20.1832 7.80871Z" fill="white"/>
</svg>
