<svg width="40" height="40" viewBox="0 0 40 40" fill="none" xmlns="http://www.w3.org/2000/svg">
<circle cx="20" cy="20" r="15" stroke="black"/>
<path d="M21.875 13.6061H18.125C15.4733 13.6061 14.1475 13.6061 13.3238 14.5114C12.5 15.4167 12.5 16.8738 12.5 19.7879V21.8485C12.5 24.7626 12.5 26.2197 13.3238 27.125C14.1475 28.0303 15.4733 28.0303 18.125 28.0303H21.875C24.5267 28.0303 25.8525 28.0303 26.6762 27.125C27.5 26.2197 27.5 24.7626 27.5 21.8485V19.7879C27.5 16.8738 27.5 15.4167 26.6762 14.5114C25.8525 13.6061 24.5267 13.6061 21.875 13.6061Z" stroke="black"/>
<path d="M15.833 17.2121H18.333" stroke="black" stroke-linecap="round"/>
<path d="M22.5 22.7576V22.4849C22.5 21.6992 22.5 21.3064 22.7441 21.0623C22.9882 20.8182 23.381 20.8182 24.1667 20.8182H25.8333C26.619 20.8182 27.0118 20.8182 27.2559 21.0623C27.5 21.3064 27.5 21.6992 27.5 22.4849V22.7576C27.5 23.5433 27.5 23.9361 27.2559 24.1802C27.0118 24.4243 26.619 24.4243 25.8333 24.4243H24.1667C23.381 24.4243 22.9882 24.4243 22.7441 24.1802C22.5 23.9361 22.5 23.5433 22.5 22.7576Z" stroke="black"/>
</svg>
