<svg width="29" height="30" viewBox="0 0 29 30" fill="none" xmlns="http://www.w3.org/2000/svg">
<path d="M12.1778 18.8324L18.4102 15.2299L12.1778 11.6274V18.8324ZM26.0595 9.42991C26.2156 9.9943 26.3237 10.7508 26.3957 11.7115C26.4798 12.6722 26.5158 13.5007 26.5158 14.2212L26.5878 15.2299C26.5878 17.8598 26.3957 19.7931 26.0595 21.03C25.7593 22.1107 25.0628 22.8072 23.982 23.1074C23.4176 23.2635 22.3849 23.3716 20.7998 23.4436C19.2387 23.5277 17.8097 23.5637 16.4888 23.5637L14.5795 23.6358C9.54801 23.6358 6.41383 23.4436 5.17698 23.1074C4.09623 22.8072 3.39974 22.1107 3.09953 21.03C2.94343 20.4656 2.83535 19.709 2.7633 18.7484C2.67924 17.7877 2.64322 16.9591 2.64322 16.2386L2.57117 15.2299C2.57117 12.6001 2.7633 10.6668 3.09953 9.42991C3.39974 8.34916 4.09623 7.65267 5.17698 7.35246C5.74137 7.19636 6.77408 7.08828 8.35918 7.01623C9.92027 6.93217 11.3493 6.89615 12.6702 6.89615L14.5795 6.8241C19.611 6.8241 22.7452 7.01623 23.982 7.35246C25.0628 7.65267 25.7593 8.34916 26.0595 9.42991Z" fill="white"/>
</svg>
