<svg width="48" height="48" viewBox="0 0 48 48" fill="none" xmlns="http://www.w3.org/2000/svg">
<path d="M23.9066 5.60584e-06C10.9096 0.00912096 0.344915 10.4508 0.0106856 23.4432C-0.074391 26.7217 0.343396 29.8558 1.44939 32.7256C1.44939 32.7256 -2.23017 14.8854 11.3821 5.56341C14.8763 3.24355 19.8654 2.08134 24.3927 2.17857C35.8538 2.43077 45.9034 12.7615 45.9824 24.2332C46.0614 36.0542 35.7261 45.9793 23.9233 45.9793C20.4124 45.9793 16.6082 45.1362 13.8767 43.3116C9.88717 40.6453 9.82032 36.3824 11.1162 32.8532C14.732 22.9965 20.6144 8.6368 23.9233 8.32688C25.4577 8.17496 29.6872 14.4706 35.9799 35.0759C35.9943 35.1219 36.0039 35.1692 36.0087 35.2172C36.6757 36.1895 37.3107 37.2529 37.3107 37.2529C36.7562 36.5237 35.8614 35.7626 34.9878 35.1093C25.6552 28.4247 14.814 26.3874 14.814 26.3874L14.3795 27.3628C14.3795 27.3628 23.9233 29.1767 35.8006 37.5704C36.7607 38.2495 37.7072 38.2131 37.9138 37.2317C38.3787 35.0151 28.9504 6.39139 23.9218 6.39139C20.4701 6.39139 13.155 22.6881 9.4314 32.8441C7.4321 38.2723 9.21871 43.5759 14.5269 45.8806C17.5432 47.1867 20.7958 47.859 24.0828 47.8556C37.3092 47.8556 47.9787 37.6616 48 24.4352C48.0228 11.0995 37.2211 -0.00910974 23.9066 5.60584e-06Z" fill="black"/>
<path d="M10.82 26.5302L11.2257 25.4774C11.2257 25.4774 7.3015 25.0687 3.85742 25.8694C3.85742 25.8694 8.11733 25.6506 10.82 26.5302Z" fill="black"/>
<path d="M23.9234 23.5541C24.66 23.5541 25.2572 22.9569 25.2572 22.2202C25.2572 21.4835 24.66 20.8863 23.9234 20.8863C23.1867 20.8863 22.5895 21.4835 22.5895 22.2202C22.5895 22.9569 23.1867 23.5541 23.9234 23.5541Z" fill="black"/>
</svg>
